HIERARCHY
ROOT Hips
{
	OFFSET 0.00000 0.00000 0.00000
	CHANNELS 6 Xposition Yposition Zposition Zrotation Yrotation Xrotation 
	JOINT LHipJoint
	{
		OFFSET 0 0 0
		CHANNELS 3 Zrotation Yrotation Xrotation
		JOINT LeftUpLeg
		{
			OFFSET 1.24777 -1.64261 0.71711
			CHANNELS 3 Zrotation Yrotation Xrotation
			JOINT LeftLeg
			{
				OFFSET 2.49329 -6.85026 0.00000
				CHANNELS 3 Zrotation Yrotation Xrotation
				JOINT LeftFoot
				{
					OFFSET 2.36770 -6.50520 0.00000
					CHANNELS 3 Zrotation Yrotation Xrotation
					JOINT LeftToeBase
					{
						OFFSET 0.14820 -0.40718 2.21395
						CHANNELS 3 Zrotation Yrotation Xrotation
						End Site
						{
							OFFSET 0.00000 -0.00000 1.13491
						}
					}
				}
			}
		}
	}
	JOINT RHipJoint
	{
		OFFSET 0 0 0
		CHANNELS 3 Zrotation Yrotation Xrotation
		JOINT RightUpLeg
		{
			OFFSET -1.18320 -1.64261 0.71711
			CHANNELS 3 Zrotation Yrotation Xrotation
			JOINT RightLeg
			{
				OFFSET -2.46559 -6.77417 0.00000
				CHANNELS 3 Zrotation Yrotation Xrotation
				JOINT RightFoot
				{
					OFFSET -2.38450 -6.55136 0.00000
					CHANNELS 3 Zrotation Yrotation Xrotation
					JOINT RightToeBase
					{
						OFFSET -0.17454 -0.47954 2.02925
						CHANNELS 3 Zrotation Yrotation Xrotation
						End Site
						{
							OFFSET -0.00000 -0.00000 1.05076
						}
					}
				}
			}
		}
	}
	JOINT LowerBack
	{
		OFFSET 0 0 0
		CHANNELS 3 Zrotation Yrotation Xrotation
		JOINT Spine
		{
			OFFSET -0.02305 1.98660 0.00319
			CHANNELS 3 Zrotation Yrotation Xrotation
			JOINT Spine1
			{
				OFFSET -0.00718 1.99033 -0.00533
				CHANNELS 3 Zrotation Yrotation Xrotation
				JOINT Neck
				{
					OFFSET 0 0 0
					CHANNELS 3 Zrotation Yrotation Xrotation
					JOINT Neck1
					{
						OFFSET 0.00095 1.61015 0.10698
						CHANNELS 3 Zrotation Yrotation Xrotation
						JOINT Head
						{
							OFFSET -0.01060 1.59924 0.01317
							CHANNELS 3 Zrotation Yrotation Xrotation
							End Site
							{
								OFFSET -0.00458 1.63304 -0.00592
							}
						}
					}
				}
				JOINT LeftShoulder
				{
					OFFSET 0 0 0
					CHANNELS 3 Zrotation Yrotation Xrotation
					JOINT LeftArm
					{
						OFFSET 3.05381 1.47088 -0.01697
						CHANNELS 3 Zrotation Yrotation Xrotation
						JOINT LeftForeArm
						{
							OFFSET 4.25106 -0.00000 0.00000
							CHANNELS 3 Zrotation Yrotation Xrotation
							JOINT LeftHand
							{
								OFFSET 3.27592 -0.00000 0.00000
								CHANNELS 3 Zrotation Yrotation Xrotation
								JOINT LeftFingerBase
								{
									OFFSET 0 0 0
									CHANNELS 3 Zrotation Yrotation Xrotation
									JOINT LeftHandIndex1
									{
										OFFSET 0.65781 -0.00000 0.00000
										CHANNELS 3 Zrotation Yrotation Xrotation
										End Site
										{
											OFFSET 0.53034 -0.00000 0.00000
										}
									}
								}
								JOINT LThumb
								{
									OFFSET 0 0 0
									CHANNELS 3 Zrotation Yrotation Xrotation
									End Site
									{
										OFFSET 0.53844 -0.00000 0.53844
									}
								}
							}
						}
					}
				}
				JOINT RightShoulder
				{
					OFFSET 0 0 0
					CHANNELS 3 Zrotation Yrotation Xrotation
					JOINT RightArm
					{
						OFFSET -2.83695 1.31619 -0.22674
						CHANNELS 3 Zrotation Yrotation Xrotation
						JOINT RightForeArm
						{
							OFFSET -4.46073 -0.00000 0.00000
							CHANNELS 3 Zrotation Yrotation Xrotation
							JOINT RightHand
							{
								OFFSET -3.44416 -0.00000 0.00000
								CHANNELS 3 Zrotation Yrotation Xrotation
								JOINT RightFingerBase
								{
									OFFSET 0 0 0
									CHANNELS 3 Zrotation Yrotation Xrotation
									JOINT RightHandIndex1
									{
										OFFSET -0.61651 -0.00000 0.00000
										CHANNELS 3 Zrotation Yrotation Xrotation
										End Site
										{
											OFFSET -0.49705 -0.00000 0.00000
										}
									}
								}
								JOINT RThumb
								{
									OFFSET 0 0 0
									CHANNELS 3 Zrotation Yrotation Xrotation
									End Site
									{
										OFFSET -0.50464 -0.00000 0.50464
									}
								}
							}
						}
					}
				}
			}
		}
	}
}
MOTION
Frames: 14
Frame Time: 0.0178571
0.00 0.00 0.00 -171.3320 6.6633 -172.0390 0.0000 0.0000 0.0000 -2.3628 -9.0169 -52.9725 15.4605 19.4986 76.6201 0.6090 3.9384 13.9296 0.1735 2.6835 7.3987 0.0000 0.0000 0.0000 32.2025 5.7377 -24.2908 -3.8785 -11.9970 35.7214 -0.8640 3.0078 -16.8066 -2.3124 -9.4885 27.3356 4.5467 2.8146 8.2862 1.7677 4.4444 3.2630 -1.1156 2.3709 -1.0590 3.1496 -1.9217 -9.0916 1.1430 -3.3433 11.1755 -0.3897 -1.5002 4.8195 0.0000 0.0000 0.0000 -79.1126 27.8905 50.6013 61.7822 -56.7664 -35.8280 -0.0000 0.0000 -12.5177 29.2911 11.6535 6.4647 -7.1250 0.0000 -0.0000 1.9376 43.2762 -0.0825 0.0000 0.0000 0.0000 60.7865 16.2298 52.1108 -86.9504 59.9648 -57.3592 0.0000 0.0000 39.6427 1.8812 -17.1900 -0.5561 7.1250 -0.0000 -0.0000 27.4215 -45.2137 -0.1567
0.00 0.00 0.00 -171.7450 6.2474 -172.0800 0.0000 0.0000 0.0000 -2.1631 -6.1828 -48.6103 19.2813 19.9876 87.8981 2.8073 3.4264 30.8987 1.0451 6.5013 18.2461 0.0000 0.0000 0.0000 30.5610 8.4022 -27.5435 -4.0476 -12.2234 36.5271 -0.5984 3.0108 -13.8966 -2.6808 -10.1594 29.4944 3.0794 2.7033 8.0288 2.9779 4.2513 3.5091 0.9767 2.2909 -0.8734 4.0200 -1.5848 -10.2589 -0.8052 -2.7600 11.1441 -1.1053 -1.2776 4.9672 0.0000 -0.0000 0.0000 -81.0069 44.2674 51.3289 81.2877 -59.7112 -52.4622 -0.0000 0.0000 -18.0347 34.0275 11.4193 7.6143 -7.1250 0.0000 -0.0000 6.3157 43.5870 -0.2212 0.0000 -0.0000 0.0000 69.8434 29.0901 46.9527 -61.7275 56.7530 -35.7822 0.0000 0.0000 39.5595 -27.2276 -13.9262 7.0593 7.1250 -0.0000 -0.0000 0.1957 -45.5612 -0.0027
0.00 0.00 0.00 -174.4120 2.3815 -171.9420 0.0000 0.0000 0.0000 -6.7041 -6.3363 -35.8298 15.3801 19.4804 76.3789 0.5230 -4.9527 16.3702 0.5475 4.7403 13.1693 0.0000 0.0000 0.0000 25.7091 12.1749 -31.5780 -4.4987 -12.7961 38.6098 -0.3754 -2.9138 -13.0148 -1.9474 -8.7557 25.0340 1.2890 1.5723 6.5725 2.8452 2.5155 3.5153 2.0374 1.3894 -0.1350 4.5664 -1.1324 -11.0741 -1.9121 -2.1671 12.5892 -1.5227 -1.0330 5.5494 -0.0000 -0.0000 0.0000 -77.4732 47.7087 56.7056 85.3256 -59.9173 -55.9530 -0.0000 0.0000 -20.9071 35.2581 13.0633 9.0784 -7.1250 0.0000 -0.0000 7.4821 45.7079 0.1315 -0.0000 -0.0000 0.0000 80.4321 37.6410 43.1131 -32.7965 43.1730 -13.2826 0.0000 0.0000 43.7770 -51.8300 -15.8742 19.1861 7.1250 -0.0000 -0.0000 -25.6846 -52.7954 5.2024
0.00 0.00 0.00 -175.7570 -0.8589 -171.5560 0.0000 0.0000 0.0000 -8.8127 -7.1484 -30.1009 13.1516 18.8362 69.5958 -0.2910 -12.6136 -4.2314 0.0362 1.2282 3.3770 0.0000 0.0000 0.0000 22.4682 13.5072 -34.3525 -4.7446 -13.0903 39.7073 -0.1703 -5.9753 -12.1909 -1.5052 -7.7489 21.9541 0.6198 1.0297 6.0052 2.7620 1.1350 3.3192 2.4256 0.4317 0.0080 4.8592 -0.9604 -11.4321 -2.5527 -1.9388 13.5035 -1.7709 -0.9571 5.8947 0.0000 -0.0000 0.0000 -76.3008 44.2448 57.9440 82.9885 -59.8134 -53.9317 -0.0000 0.0000 -18.8000 35.1481 15.8484 10.8838 -7.1250 0.0000 -0.0000 7.3526 48.9859 0.7264 0.0000 -0.0000 0.0000 84.2335 38.6685 39.6098 -24.9690 36.1723 -8.2716 0.0000 0.0000 44.9849 -52.8467 -17.1428 21.2552 7.1250 -0.0000 -0.0000 -27.6345 -54.8092 7.0595
0.00 0.00 0.00 -178.9480 -5.5613 -170.5740 0.0000 0.0000 0.0000 -18.1897 1.0250 -23.5860 5.9127 14.3432 44.6303 2.2284 -6.7619 -26.9275 0.0357 -1.2199 -3.3541 0.0000 0.0000 0.0000 14.9984 11.3387 -43.5252 -4.9519 -13.3294 40.6144 0.1776 -8.3021 0.8723 -0.2487 -3.2087 8.8603 -1.3564 -0.2884 5.4450 1.3763 -0.6809 3.7831 2.2046 -0.4819 0.8699 4.9803 -0.9471 -12.5031 -1.4161 -2.2360 14.8658 -1.4845 -1.0027 6.5171 -0.0000 -0.0000 0.0000 -74.5739 23.6837 56.2306 102.5846 -59.3930 -70.8763 -0.0000 0.0000 -14.6278 33.7626 16.0168 10.4508 -7.1250 0.0000 -0.0000 5.9512 48.9378 0.5798 -0.0000 -0.0000 0.0000 85.4020 18.5527 37.4133 -29.2313 40.2254 -10.9098 0.0000 0.0000 39.2618 -44.8485 -20.4005 19.1236 7.1250 -0.0000 -0.0000 -18.5333 -56.6837 5.4369
0.00 0.00 0.00 -180.3730 -6.1440 -171.8950 0.0000 0.0000 0.0000 -20.7334 3.4481 -26.6472 5.5672 13.9954 43.2192 1.9681 -11.2172 -25.2654 0.1220 2.2515 6.2013 0.0000 0.0000 0.0000 12.9232 8.6696 -50.8447 -8.9521 -16.7768 55.9244 -0.3549 -2.5010 10.6667 -0.3884 -4.0021 11.0826 -2.0308 -0.4486 7.3147 0.0597 -1.0287 4.2072 1.2710 -0.6800 0.2740 3.8063 -1.1351 -11.6167 -0.0794 -2.5542 15.6109 -0.8955 -1.1336 6.6279 -0.0000 0.0000 0.0000 -70.9237 4.0054 54.8762 118.0117 -56.8169 -83.9996 -0.0000 0.0000 -7.9479 34.3275 12.0738 8.1288 -7.1250 0.0000 -0.0000 6.5955 44.4005 -0.0980 -0.0000 0.0000 0.0000 87.5472 0.9247 35.2189 -38.2972 47.0281 -17.1827 0.0000 0.0000 35.4036 -43.1968 -22.2844 19.5986 7.1250 -0.0000 -0.0000 -16.7608 -58.5292 5.6467
0.00 0.00 0.00 -182.8420 -7.9482 -171.0500 0.0000 0.0000 0.0000 -23.4543 -0.3960 -28.7472 5.1015 13.4972 41.2595 1.5538 -11.7721 -22.5884 0.4215 4.1671 11.5472 0.0000 0.0000 0.0000 9.7587 6.3775 -55.9198 -14.4072 -19.2329 73.4442 -1.3340 -2.4413 21.1711 -1.1715 -6.8702 19.3314 -3.0929 -1.0812 6.6254 -1.6856 -1.9163 3.8384 0.1188 -1.1156 0.2825 2.5740 -1.5991 -11.3933 1.8751 -3.4840 16.9858 -0.1667 -1.5163 7.0758 -0.0000 0.0000 0.0000 -69.1411 -16.3328 49.6693 116.9005 -57.0808 -83.0682 -0.0000 0.0000 -2.4174 35.9275 8.7171 6.2671 -7.1250 0.0000 -0.0000 7.9820 40.5742 -0.8774 -0.0000 0.0000 0.0000 89.4377 -13.9654 34.5508 -45.7957 51.1524 -22.8568 0.0000 0.0000 32.1719 -43.7961 -23.5861 20.9895 7.1250 -0.0000 -0.0000 -17.7633 -60.2645 6.7395
0.00 0.00 0.00 -179.4690 2.0503 -171.2980 0.0000 0.0000 0.0000 -15.8549 -2.1403 -31.9196 12.6633 18.6572 68.0765 0.2493 -10.3890 -10.7639 0.0017 -0.2649 -0.7277 0.0000 0.0000 0.0000 22.5714 5.3377 -39.9837 -5.0859 -13.4798 41.1923 -0.4760 0.6184 -12.8326 -3.1689 -10.9635 32.1570 -1.3222 4.4659 4.7839 2.2458 6.2203 4.3592 2.8157 3.1883 1.4331 -0.8356 -3.3120 -13.4990 -0.7872 -6.1465 28.3751 -1.1035 -3.5436 11.4579 -0.0000 0.0000 0.0000 -69.8539 44.9448 66.4493 103.4217 -59.3083 -71.5965 -0.0000 0.0000 -21.7196 32.4418 19.2820 11.8544 -7.1250 0.0000 -0.0000 4.3214 52.4448 0.7931 -0.0000 0.0000 0.0000 69.2055 38.6222 28.4403 -22.6829 33.7402 -6.9614 0.0000 0.0000 42.6410 -56.1710 -17.3888 24.0337 7.1250 -0.0000 -0.0000 -32.4204 -56.2228 9.6346
0.00 0.00 0.00 -180.3690 -6.5416 -173.2730 0.0000 0.0000 0.0000 -20.2626 -5.8541 -33.1010 4.4361 12.7191 38.3260 0.6662 -2.6952 -14.7369 0.5493 4.7479 13.1909 0.0000 0.0000 0.0000 14.3829 7.8819 -35.5102 -15.7711 -19.5657 77.5490 -1.2697 -1.3368 20.9072 -0.8447 -5.8622 16.3851 -0.9853 0.0540 4.5462 -2.1533 -0.3436 5.5970 -1.6718 -0.3487 3.2086 1.4139 -0.3790 -12.3862 3.9156 -4.9532 31.1897 0.3470 -2.4207 12.4707 -0.0000 -0.0000 0.0000 -79.7206 -32.2594 49.1831 57.3376 -55.5577 -32.1354 -0.0000 -0.0000 8.8535 52.4254 -20.1689 -24.1384 -7.1250 0.0000 -0.0000 14.4986 -0.2261 -15.0448 -0.0000 -0.0000 0.0000 65.1551 -28.4366 67.2641 -89.9750 60.0000 -59.9783 0.0000 0.0000 13.9185 -5.6625 -30.8071 2.9070 7.1250 -0.0000 -0.0000 28.8949 -58.4883 -10.0676
0.00 0.00 0.00 -178.2130 -6.8540 -173.1360 0.0000 0.0000 0.0000 -17.1045 -7.3069 -35.3175 4.3440 12.6046 37.9059 0.4164 -1.1538 -11.8419 0.2717 3.3531 9.2633 0.0000 0.0000 0.0000 19.2376 5.9961 -27.5469 -12.1428 -18.4504 66.4408 -0.0227 2.5821 4.8901 -0.1242 2.2717 -6.2571 0.6113 -0.0968 3.7883 -1.7730 -0.4744 5.6179 -2.1795 -0.3420 3.6479 1.8676 -0.1023 -12.1196 3.7927 -4.7088 31.3846 0.2546 -2.2999 12.4801 0.0000 0.0000 0.0000 -78.3861 -30.9768 48.5400 49.1815 -52.6600 -25.5219 -0.0000 -0.0000 8.4976 49.3891 -16.0863 -17.9085 -7.1250 0.0000 -0.0000 13.7826 6.6474 -12.4699 0.0000 0.0000 0.0000 54.1956 -26.6840 77.2382 -103.2470 59.3264 -71.4463 0.0000 0.0000 6.9379 2.7005 -30.3717 -1.3662 7.1250 -0.0000 -0.0000 36.5560 -56.3540 -11.2234
0.00 0.00 0.00 -174.4240 -6.6411 -172.1560 0.0000 0.0000 0.0000 -11.2270 -9.1125 -39.8837 4.2581 12.4962 37.5106 0.1096 0.9493 -6.6764 0.1707 2.6617 7.3383 0.0000 0.0000 0.0000 26.3853 2.7612 -21.0966 -7.3955 -15.6561 50.3546 -0.6381 0.4436 -14.9484 -0.7021 5.3559 -14.9264 3.2256 0.4383 3.1517 -0.4760 0.3005 5.2324 -2.3061 0.1461 3.6573 2.0778 -0.3977 -12.0476 3.8578 -5.2259 31.3746 0.1714 -2.4960 12.4696 -0.0000 0.0000 0.0000 -78.2690 -26.3121 49.1773 43.9098 -50.2231 -21.3976 -0.0000 -0.0000 8.2024 46.5109 -16.2329 -16.4196 -7.1250 0.0000 -0.0000 12.0128 7.4579 -10.5936 -0.0000 0.0000 0.0000 42.2378 -20.6568 81.1899 -116.9446 57.0706 -83.1052 0.0000 -0.0000 -2.4514 14.9239 -27.7468 -7.0734 7.1250 -0.0000 -0.0000 45.1558 -51.9908 -9.3538
0.00 0.00 0.00 -172.5160 -4.5389 -172.5370 0.0000 0.0000 0.0000 -8.1579 -6.6963 -50.4451 7.5535 15.7809 50.9381 0.0605 -0.6540 4.9347 0.1705 2.6602 7.3341 0.0000 0.0000 0.0000 30.1730 2.6861 -20.5310 -5.1985 -13.6039 41.6734 -1.1897 -2.1945 -21.5021 -0.0736 1.7507 -4.8171 5.4088 1.4362 5.2668 0.0425 1.6082 5.7617 -3.0311 0.8099 3.1862 2.2986 -0.7691 -11.8218 3.3520 -5.1014 29.5785 0.0030 -2.4025 11.6692 -0.0000 0.0000 0.0000 -77.7096 -13.3163 48.4963 43.5368 -50.0312 -21.1113 -0.0000 0.0000 -3.0603 35.8415 0.0791 0.0572 -7.1250 0.0000 -0.0000 7.3060 30.0362 -2.6875 -0.0000 0.0000 0.0000 28.5679 -2.8572 73.2979 -125.3824 54.6962 -90.0964 0.0000 -0.0000 -7.0986 25.9988 -22.5684 -10.6017 7.1250 -0.0000 -0.0000 49.6460 -46.2947 -2.1218
0.00 0.00 0.00 -172.3410 -3.9349 -173.2520 0.0000 0.0000 0.0000 -6.9611 -7.2353 -53.4682 12.3780 18.5459 67.1822 0.4171 -0.3584 12.3347 0.3632 3.8716 10.7156 0.0000 0.0000 0.0000 30.4402 2.4167 -22.2571 -4.9291 -13.3035 40.5154 -1.1341 -2.1082 -20.9798 -0.0191 -0.8922 2.4524 6.1469 1.8423 6.0683 0.8259 2.1147 6.0261 -2.6601 1.0376 3.0745 1.8262 -1.2108 -11.8559 2.7737 -5.5740 30.1373 -0.2023 -2.7407 11.8873 0.0000 -0.0000 0.0000 -79.6557 -1.6834 48.6220 46.5172 -51.4905 -23.4200 -0.0000 0.0000 -7.4964 32.7783 9.8916 6.3122 -7.1250 0.0000 -0.0000 5.1770 41.6410 -0.4302 0.0000 -0.0000 0.0000 23.3101 8.0570 63.1936 -119.7883 56.3661 -85.4827 0.0000 -0.0000 -0.8273 31.4884 -20.5215 -12.1189 7.1250 -0.0000 -0.0000 51.6286 -43.8700 2.0507
0.00 0.00 0.00 -180.9730 -0.4829 -171.3420 0.0000 0.0000 0.0000 -17.9707 -6.8268 -34.7797 4.4457 12.7310 38.3698 0.6174 -7.6479 -14.1910 0.7408 5.4984 15.3358 0.0000 0.0000 0.0000 12.6287 3.6596 -31.7906 -17.1351 -19.8021 81.5970 -0.3375 -7.2680 10.7982 -0.9590 -6.2357 17.4697 -0.9180 0.4516 2.7084 -2.3198 0.3224 4.7712 -1.8825 0.0327 3.3975 1.4201 0.4267 -12.1748 1.4723 -1.9984 27.4937 -0.0902 -1.2206 10.8710 -0.0000 -0.0000 0.0000 -66.5724 -32.2122 35.3738 98.4815 -59.7264 -67.3384 -0.0000 -0.0000 14.8802 65.2703 -28.6019 -46.1067 -7.1250 0.0000 -0.0000 18.8286 -20.2285 -25.2512 -0.0000 -0.0000 0.0000 84.1954 -23.5072 44.5844 -48.9664 52.5700 -25.3510 0.0000 0.0000 20.5106 -12.6582 -27.9372 6.0067 7.1250 -0.0000 -0.0000 19.6753 -57.4022 -6.1355
